<mxfile host="app.diagrams.net" modified="2024-01-29T14:05:45.048Z" agent="Mozilla/5.0 (X11; Ubuntu; Linux x86_64; rv:121.0) Gecko/20100101 Firefox/121.0" etag="STMAnFgm8iNkCvBy0huP" version="22.1.17" type="github">
  <diagram id="C5RBs43oDa-KdzZeNtuy" name="Page-1">
    <mxGraphModel dx="2191" dy="795" grid="1" gridSize="10" guides="1" tooltips="1" connect="1" arrows="1" fold="1" page="1" pageScale="1" pageWidth="827" pageHeight="1169" math="0" shadow="0">
      <root>
        <mxCell id="WIyWlLk6GJQsqaUBKTNV-0" />
        <mxCell id="WIyWlLk6GJQsqaUBKTNV-1" parent="WIyWlLk6GJQsqaUBKTNV-0" />
        <mxCell id="ezU55_HowOdJxXUAR7C2-4" value="DroneTypes" style="swimlane;fontStyle=1;align=center;verticalAlign=top;childLayout=stackLayout;horizontal=1;startSize=26;horizontalStack=0;resizeParent=1;resizeParentMax=0;resizeLast=0;collapsible=1;marginBottom=0;whiteSpace=wrap;html=1;" vertex="1" parent="WIyWlLk6GJQsqaUBKTNV-1">
          <mxGeometry y="585" width="290" height="420" as="geometry" />
        </mxCell>
        <mxCell id="ezU55_HowOdJxXUAR7C2-5" value="&lt;div&gt;- id : int&lt;/div&gt;&lt;div&gt;- manufacturer : String&lt;/div&gt;&lt;div&gt;- typename : String&lt;/div&gt;&lt;div&gt;- weight : int&lt;/div&gt;&lt;div&gt;- max_speed : int&lt;/div&gt;&lt;div&gt;- battery_capacity : int&lt;/div&gt;&lt;div&gt;- control_range : int&lt;/div&gt;&lt;div&gt;- max_carriage : int&lt;br&gt;&lt;/div&gt;&lt;div&gt;&lt;br&gt;&lt;/div&gt;" style="text;strokeColor=none;fillColor=none;align=left;verticalAlign=top;spacingLeft=4;spacingRight=4;overflow=hidden;rotatable=0;points=[[0,0.5],[1,0.5]];portConstraint=eastwest;whiteSpace=wrap;html=1;" vertex="1" parent="ezU55_HowOdJxXUAR7C2-4">
          <mxGeometry y="26" width="290" height="124" as="geometry" />
        </mxCell>
        <mxCell id="ezU55_HowOdJxXUAR7C2-6" value="" style="line;strokeWidth=1;fillColor=none;align=left;verticalAlign=middle;spacingTop=-1;spacingLeft=3;spacingRight=3;rotatable=0;labelPosition=right;points=[];portConstraint=eastwest;strokeColor=inherit;" vertex="1" parent="ezU55_HowOdJxXUAR7C2-4">
          <mxGeometry y="150" width="290" height="8" as="geometry" />
        </mxCell>
        <mxCell id="ezU55_HowOdJxXUAR7C2-7" value="&lt;div&gt;+ get_id() : int&lt;/div&gt;&lt;div&gt;+ set_id(id : int) : void&lt;/div&gt;&lt;div&gt;+ get_manufacturer() : String&lt;/div&gt;&lt;div&gt;+ set_manufacturer(manufacturer : String) : void&lt;/div&gt;&lt;div&gt;+ get_typename() : String&lt;/div&gt;&lt;div&gt;+ set_typename(typename : String) : void&lt;/div&gt;&lt;div&gt;+ get_weight() : int&lt;/div&gt;&lt;div&gt;+ set_weight(weight : int) : void&lt;/div&gt;&lt;div&gt;+ get_max_speed() : int&lt;/div&gt;&lt;div&gt;+ set_max_speed(max_speed: int) : void&lt;/div&gt;&lt;div&gt;+ get_battery_capacity() : int&lt;br&gt;&lt;/div&gt;&lt;div&gt;+ set_battery_capacity(battery_capacity : int) : void&lt;/div&gt;&lt;div&gt;+ get_control_range() : int&lt;/div&gt;&lt;div&gt;+ set_control_range(control_range : int) : void&lt;/div&gt;&lt;div&gt;+ get_max_carriage() : int&lt;/div&gt;&lt;div&gt;+ set_max_carriage(max_carriage : int) : void&amp;nbsp; &lt;br&gt;&lt;/div&gt;&lt;div&gt;+ DroneTypes()&lt;br&gt;&lt;/div&gt;&lt;div&gt;&lt;br&gt;&lt;/div&gt;" style="text;strokeColor=none;fillColor=none;align=left;verticalAlign=top;spacingLeft=4;spacingRight=4;overflow=hidden;rotatable=0;points=[[0,0.5],[1,0.5]];portConstraint=eastwest;whiteSpace=wrap;html=1;" vertex="1" parent="ezU55_HowOdJxXUAR7C2-4">
          <mxGeometry y="158" width="290" height="262" as="geometry" />
        </mxCell>
        <mxCell id="ezU55_HowOdJxXUAR7C2-8" value="Drones" style="swimlane;fontStyle=1;align=center;verticalAlign=top;childLayout=stackLayout;horizontal=1;startSize=26;horizontalStack=0;resizeParent=1;resizeParentMax=0;resizeLast=0;collapsible=1;marginBottom=0;whiteSpace=wrap;html=1;" vertex="1" parent="WIyWlLk6GJQsqaUBKTNV-1">
          <mxGeometry x="380" y="585" width="290" height="330" as="geometry" />
        </mxCell>
        <mxCell id="ezU55_HowOdJxXUAR7C2-9" value="&lt;div&gt;- id : int&lt;/div&gt;&lt;div&gt;- dronetype : String&lt;/div&gt;&lt;div&gt;- created : Date&lt;/div&gt;&lt;div&gt;- serialnumber : String&lt;/div&gt;&lt;div&gt;- carriage_weight : int&lt;/div&gt;&lt;div&gt;- carriage_type : String&lt;br&gt;&lt;/div&gt;" style="text;strokeColor=none;fillColor=none;align=left;verticalAlign=top;spacingLeft=4;spacingRight=4;overflow=hidden;rotatable=0;points=[[0,0.5],[1,0.5]];portConstraint=eastwest;whiteSpace=wrap;html=1;" vertex="1" parent="ezU55_HowOdJxXUAR7C2-8">
          <mxGeometry y="26" width="290" height="94" as="geometry" />
        </mxCell>
        <mxCell id="ezU55_HowOdJxXUAR7C2-10" value="" style="line;strokeWidth=1;fillColor=none;align=left;verticalAlign=middle;spacingTop=-1;spacingLeft=3;spacingRight=3;rotatable=0;labelPosition=right;points=[];portConstraint=eastwest;strokeColor=inherit;" vertex="1" parent="ezU55_HowOdJxXUAR7C2-8">
          <mxGeometry y="120" width="290" height="8" as="geometry" />
        </mxCell>
        <mxCell id="ezU55_HowOdJxXUAR7C2-11" value="&lt;div&gt;+ get_id() : int&lt;/div&gt;&lt;div&gt;+ set_id(id : int) : void&lt;/div&gt;&lt;div&gt;+ get_dronetype() : String&lt;/div&gt;&lt;div&gt;+ set_dronetype(dronetype : String) : void &lt;br&gt;&lt;/div&gt;&lt;div&gt;+ get_created() : Date&lt;/div&gt;&lt;div&gt;+ set_created(created : Date) : void&lt;/div&gt;&lt;div&gt;+ get_serialnumber() : String&lt;/div&gt;&lt;div&gt;+ set_serialnumber(serialnumber : String) : void&lt;br&gt;&lt;/div&gt;&lt;div&gt;+ get_carriage_weight() : int&lt;/div&gt;&lt;div&gt;+ set_carriage_weight(carriage_weight : int) : void&lt;/div&gt;&lt;div&gt;+ get_carriage_type() : String&lt;/div&gt;&lt;div&gt;+ set_carriage_type(carriage_type : String) : void&lt;/div&gt;&lt;div&gt;+ Drones()&lt;br&gt;&lt;/div&gt;" style="text;strokeColor=none;fillColor=none;align=left;verticalAlign=top;spacingLeft=4;spacingRight=4;overflow=hidden;rotatable=0;points=[[0,0.5],[1,0.5]];portConstraint=eastwest;whiteSpace=wrap;html=1;" vertex="1" parent="ezU55_HowOdJxXUAR7C2-8">
          <mxGeometry y="128" width="290" height="202" as="geometry" />
        </mxCell>
        <mxCell id="ezU55_HowOdJxXUAR7C2-12" value="DroneDynamics" style="swimlane;fontStyle=1;align=center;verticalAlign=top;childLayout=stackLayout;horizontal=1;startSize=26;horizontalStack=0;resizeParent=1;resizeParentMax=0;resizeLast=0;collapsible=1;marginBottom=0;whiteSpace=wrap;html=1;" vertex="1" parent="WIyWlLk6GJQsqaUBKTNV-1">
          <mxGeometry x="770" y="585" width="260" height="540" as="geometry" />
        </mxCell>
        <mxCell id="ezU55_HowOdJxXUAR7C2-13" value="&lt;div&gt;- drone : String&lt;/div&gt;&lt;div&gt;- timestamp : Date&lt;/div&gt;&lt;div&gt;- speed : int&lt;/div&gt;&lt;div&gt;- align_roll : double&lt;/div&gt;&lt;div&gt;- align_pitch : double&lt;/div&gt;&lt;div&gt;- align_yaw : double&lt;/div&gt;&lt;div&gt;- longitude : double&lt;/div&gt;&lt;div&gt;- latitude : double&lt;/div&gt;&lt;div&gt;- battery_status : int&lt;/div&gt;&lt;div&gt;- last_seen : Date&lt;/div&gt;&lt;div&gt;- status : String&lt;br&gt;&lt;/div&gt;" style="text;strokeColor=none;fillColor=none;align=left;verticalAlign=top;spacingLeft=4;spacingRight=4;overflow=hidden;rotatable=0;points=[[0,0.5],[1,0.5]];portConstraint=eastwest;whiteSpace=wrap;html=1;" vertex="1" parent="ezU55_HowOdJxXUAR7C2-12">
          <mxGeometry y="26" width="260" height="164" as="geometry" />
        </mxCell>
        <mxCell id="ezU55_HowOdJxXUAR7C2-14" value="" style="line;strokeWidth=1;fillColor=none;align=left;verticalAlign=middle;spacingTop=-1;spacingLeft=3;spacingRight=3;rotatable=0;labelPosition=right;points=[];portConstraint=eastwest;strokeColor=inherit;" vertex="1" parent="ezU55_HowOdJxXUAR7C2-12">
          <mxGeometry y="190" width="260" height="8" as="geometry" />
        </mxCell>
        <mxCell id="ezU55_HowOdJxXUAR7C2-15" value="&lt;div&gt;+ get_drone() : String&lt;/div&gt;&lt;div&gt;+ set_drone(drone : String) : void&lt;/div&gt;&lt;div&gt;+ get_timestamp() : Date&lt;/div&gt;&lt;div&gt;+ set_timestamp(timestamp : Date) : void&lt;br&gt;&lt;/div&gt;&lt;div&gt;+ get_speed() : int&lt;/div&gt;&lt;div&gt;+ set_speed(speed : int) : void&lt;/div&gt;&lt;div&gt;+ get_align_roll() : double&lt;/div&gt;&lt;div&gt;+ set_align_roll(align_roll : double) : void&lt;/div&gt;&lt;div&gt;+ get_align_pitch() : double&lt;br&gt;&lt;/div&gt;&lt;div&gt;+ set_align_pitch(align_pitch : double) : void&lt;/div&gt;&lt;div&gt;+ get_align_yaw() : double&lt;/div&gt;&lt;div&gt;+ set_align_yaw(align_yaw : double) : void&lt;/div&gt;&lt;div&gt;+ get_longitude() : double&lt;/div&gt;&lt;div&gt;+ set_longitude(longitude : double) : void&lt;/div&gt;&lt;div&gt;+ get_latitude() : double&lt;/div&gt;&lt;div&gt;+ set_latitude(latitude : double) : void&lt;/div&gt;&lt;div&gt;+ get_battery_status() : int&lt;/div&gt;&lt;div&gt;+ set_battery_status(battery_status : int) : void&lt;/div&gt;&lt;div&gt;+ get_last_seen() : Date&lt;/div&gt;&lt;div&gt;+ set_last_seen(last_seen : Date) : void&lt;/div&gt;&lt;div&gt;+ get_status() : String&lt;/div&gt;&lt;div&gt;+ set_status(status : String) : void&lt;/div&gt;&lt;div&gt;+ DroneDynamics()&lt;br&gt;&lt;/div&gt;&lt;div&gt;&lt;br&gt;&lt;/div&gt;" style="text;strokeColor=none;fillColor=none;align=left;verticalAlign=top;spacingLeft=4;spacingRight=4;overflow=hidden;rotatable=0;points=[[0,0.5],[1,0.5]];portConstraint=eastwest;whiteSpace=wrap;html=1;" vertex="1" parent="ezU55_HowOdJxXUAR7C2-12">
          <mxGeometry y="198" width="260" height="342" as="geometry" />
        </mxCell>
        <mxCell id="ezU55_HowOdJxXUAR7C2-16" value="DroneMapPanel" style="swimlane;fontStyle=1;align=center;verticalAlign=top;childLayout=stackLayout;horizontal=1;startSize=26;horizontalStack=0;resizeParent=1;resizeParentMax=0;resizeLast=0;collapsible=1;marginBottom=0;whiteSpace=wrap;html=1;" vertex="1" parent="WIyWlLk6GJQsqaUBKTNV-1">
          <mxGeometry x="890" y="280" width="390" height="150" as="geometry" />
        </mxCell>
        <mxCell id="ezU55_HowOdJxXUAR7C2-17" value="&lt;div&gt;- mapKit : JXMapKit&lt;/div&gt;&lt;div&gt;- waypointPainter : WaypointPainter&amp;lt;Waypoint&amp;gt;&lt;/div&gt;&lt;div&gt;- dronePosition : GeoPosition&lt;br&gt;&lt;/div&gt;" style="text;strokeColor=none;fillColor=none;align=left;verticalAlign=top;spacingLeft=4;spacingRight=4;overflow=hidden;rotatable=0;points=[[0,0.5],[1,0.5]];portConstraint=eastwest;whiteSpace=wrap;html=1;" vertex="1" parent="ezU55_HowOdJxXUAR7C2-16">
          <mxGeometry y="26" width="390" height="54" as="geometry" />
        </mxCell>
        <mxCell id="ezU55_HowOdJxXUAR7C2-18" value="" style="line;strokeWidth=1;fillColor=none;align=left;verticalAlign=middle;spacingTop=-1;spacingLeft=3;spacingRight=3;rotatable=0;labelPosition=right;points=[];portConstraint=eastwest;strokeColor=inherit;" vertex="1" parent="ezU55_HowOdJxXUAR7C2-16">
          <mxGeometry y="80" width="390" height="8" as="geometry" />
        </mxCell>
        <mxCell id="ezU55_HowOdJxXUAR7C2-19" value="&lt;div&gt;+ setDroneLocation(latitude : double, longitude : double) : void&lt;/div&gt;&lt;div&gt;+ clearDroneRoute() : void&lt;/div&gt;&lt;div&gt;+ getWaypointPainter() : WaypointPainter&amp;lt;Waypoint&amp;gt;&lt;br&gt;&lt;/div&gt;&lt;div&gt;&lt;br&gt;&lt;/div&gt;" style="text;strokeColor=none;fillColor=none;align=left;verticalAlign=top;spacingLeft=4;spacingRight=4;overflow=hidden;rotatable=0;points=[[0,0.5],[1,0.5]];portConstraint=eastwest;whiteSpace=wrap;html=1;" vertex="1" parent="ezU55_HowOdJxXUAR7C2-16">
          <mxGeometry y="88" width="390" height="62" as="geometry" />
        </mxCell>
        <mxCell id="ezU55_HowOdJxXUAR7C2-21" value="Logic" style="swimlane;fontStyle=1;align=center;verticalAlign=top;childLayout=stackLayout;horizontal=1;startSize=26;horizontalStack=0;resizeParent=1;resizeParentMax=0;resizeLast=0;collapsible=1;marginBottom=0;whiteSpace=wrap;html=1;" vertex="1" parent="WIyWlLk6GJQsqaUBKTNV-1">
          <mxGeometry x="1161" y="585" width="160" height="86" as="geometry" />
        </mxCell>
        <mxCell id="ezU55_HowOdJxXUAR7C2-22" value="+ field: type" style="text;strokeColor=none;fillColor=none;align=left;verticalAlign=top;spacingLeft=4;spacingRight=4;overflow=hidden;rotatable=0;points=[[0,0.5],[1,0.5]];portConstraint=eastwest;whiteSpace=wrap;html=1;" vertex="1" parent="ezU55_HowOdJxXUAR7C2-21">
          <mxGeometry y="26" width="160" height="26" as="geometry" />
        </mxCell>
        <mxCell id="ezU55_HowOdJxXUAR7C2-23" value="" style="line;strokeWidth=1;fillColor=none;align=left;verticalAlign=middle;spacingTop=-1;spacingLeft=3;spacingRight=3;rotatable=0;labelPosition=right;points=[];portConstraint=eastwest;strokeColor=inherit;" vertex="1" parent="ezU55_HowOdJxXUAR7C2-21">
          <mxGeometry y="52" width="160" height="8" as="geometry" />
        </mxCell>
        <mxCell id="ezU55_HowOdJxXUAR7C2-24" value="+ APIDataHandler" style="text;strokeColor=none;fillColor=none;align=left;verticalAlign=top;spacingLeft=4;spacingRight=4;overflow=hidden;rotatable=0;points=[[0,0.5],[1,0.5]];portConstraint=eastwest;whiteSpace=wrap;html=1;" vertex="1" parent="ezU55_HowOdJxXUAR7C2-21">
          <mxGeometry y="60" width="160" height="26" as="geometry" />
        </mxCell>
        <mxCell id="ezU55_HowOdJxXUAR7C2-25" value="APIAuthentication" style="swimlane;fontStyle=1;align=center;verticalAlign=top;childLayout=stackLayout;horizontal=1;startSize=26;horizontalStack=0;resizeParent=1;resizeParentMax=0;resizeLast=0;collapsible=1;marginBottom=0;whiteSpace=wrap;html=1;" vertex="1" parent="WIyWlLk6GJQsqaUBKTNV-1">
          <mxGeometry x="1020" y="106" width="160" height="86" as="geometry" />
        </mxCell>
        <mxCell id="ezU55_HowOdJxXUAR7C2-26" value="+ field: type" style="text;strokeColor=none;fillColor=none;align=left;verticalAlign=top;spacingLeft=4;spacingRight=4;overflow=hidden;rotatable=0;points=[[0,0.5],[1,0.5]];portConstraint=eastwest;whiteSpace=wrap;html=1;" vertex="1" parent="ezU55_HowOdJxXUAR7C2-25">
          <mxGeometry y="26" width="160" height="26" as="geometry" />
        </mxCell>
        <mxCell id="ezU55_HowOdJxXUAR7C2-27" value="" style="line;strokeWidth=1;fillColor=none;align=left;verticalAlign=middle;spacingTop=-1;spacingLeft=3;spacingRight=3;rotatable=0;labelPosition=right;points=[];portConstraint=eastwest;strokeColor=inherit;" vertex="1" parent="ezU55_HowOdJxXUAR7C2-25">
          <mxGeometry y="52" width="160" height="8" as="geometry" />
        </mxCell>
        <mxCell id="ezU55_HowOdJxXUAR7C2-28" value="+ method(type): type" style="text;strokeColor=none;fillColor=none;align=left;verticalAlign=top;spacingLeft=4;spacingRight=4;overflow=hidden;rotatable=0;points=[[0,0.5],[1,0.5]];portConstraint=eastwest;whiteSpace=wrap;html=1;" vertex="1" parent="ezU55_HowOdJxXUAR7C2-25">
          <mxGeometry y="60" width="160" height="26" as="geometry" />
        </mxCell>
        <mxCell id="ezU55_HowOdJxXUAR7C2-29" value="Homepage" style="swimlane;fontStyle=1;align=center;verticalAlign=top;childLayout=stackLayout;horizontal=1;startSize=26;horizontalStack=0;resizeParent=1;resizeParentMax=0;resizeLast=0;collapsible=1;marginBottom=0;whiteSpace=wrap;html=1;" vertex="1" parent="WIyWlLk6GJQsqaUBKTNV-1">
          <mxGeometry x="-120" y="280" width="360" height="220" as="geometry" />
        </mxCell>
        <mxCell id="ezU55_HowOdJxXUAR7C2-30" value="&lt;div&gt;- final panelRow : JPanel&lt;/div&gt;&lt;div&gt;- final labelDronetype : JLabel&lt;/div&gt;&lt;div&gt;- final labelSerialnumber : JLabel&lt;/div&gt;&lt;div&gt;- final window : MainWindow&lt;br&gt;&lt;/div&gt;" style="text;strokeColor=none;fillColor=none;align=left;verticalAlign=top;spacingLeft=4;spacingRight=4;overflow=hidden;rotatable=0;points=[[0,0.5],[1,0.5]];portConstraint=eastwest;whiteSpace=wrap;html=1;" vertex="1" parent="ezU55_HowOdJxXUAR7C2-29">
          <mxGeometry y="26" width="360" height="64" as="geometry" />
        </mxCell>
        <mxCell id="ezU55_HowOdJxXUAR7C2-31" value="" style="line;strokeWidth=1;fillColor=none;align=left;verticalAlign=middle;spacingTop=-1;spacingLeft=3;spacingRight=3;rotatable=0;labelPosition=right;points=[];portConstraint=eastwest;strokeColor=inherit;" vertex="1" parent="ezU55_HowOdJxXUAR7C2-29">
          <mxGeometry y="90" width="360" height="8" as="geometry" />
        </mxCell>
        <mxCell id="ezU55_HowOdJxXUAR7C2-32" value="&lt;div&gt;+ getListCellRenderer(JList&amp;lt;dronetype, serialnumber&amp;gt;) : JPanel&lt;br&gt;&lt;/div&gt;&lt;div&gt;+ filterBySearchAttribute(HomepageResultListData : array, searchBarInput : String) : array&lt;/div&gt;&lt;div&gt;- createTopContainer() : void&lt;/div&gt;&lt;div&gt;- createSearchResultContainer() : JPanel&lt;/div&gt;&lt;div&gt;- createSearchbar() : JPanel&lt;/div&gt;&lt;div&gt;- createResultList() : JComponent&lt;br&gt;&lt;/div&gt;&lt;div&gt;- onRowClicked(data : HomepageResultListData) : void&lt;br&gt;&lt;/div&gt;" style="text;strokeColor=none;fillColor=none;align=left;verticalAlign=top;spacingLeft=4;spacingRight=4;overflow=hidden;rotatable=0;points=[[0,0.5],[1,0.5]];portConstraint=eastwest;whiteSpace=wrap;html=1;" vertex="1" parent="ezU55_HowOdJxXUAR7C2-29">
          <mxGeometry y="98" width="360" height="122" as="geometry" />
        </mxCell>
        <mxCell id="ezU55_HowOdJxXUAR7C2-33" value="DroneInfo Page" style="swimlane;fontStyle=1;align=center;verticalAlign=top;childLayout=stackLayout;horizontal=1;startSize=26;horizontalStack=0;resizeParent=1;resizeParentMax=0;resizeLast=0;collapsible=1;marginBottom=0;whiteSpace=wrap;html=1;" vertex="1" parent="WIyWlLk6GJQsqaUBKTNV-1">
          <mxGeometry x="280" y="280" width="210" height="160" as="geometry" />
        </mxCell>
        <mxCell id="ezU55_HowOdJxXUAR7C2-34" value="&lt;div&gt;- final window : MainWindow&lt;br&gt;&lt;/div&gt;&lt;div&gt;- droneData : Drone&lt;br&gt;&lt;/div&gt;" style="text;strokeColor=none;fillColor=none;align=left;verticalAlign=top;spacingLeft=4;spacingRight=4;overflow=hidden;rotatable=0;points=[[0,0.5],[1,0.5]];portConstraint=eastwest;whiteSpace=wrap;html=1;" vertex="1" parent="ezU55_HowOdJxXUAR7C2-33">
          <mxGeometry y="26" width="210" height="44" as="geometry" />
        </mxCell>
        <mxCell id="ezU55_HowOdJxXUAR7C2-35" value="" style="line;strokeWidth=1;fillColor=none;align=left;verticalAlign=middle;spacingTop=-1;spacingLeft=3;spacingRight=3;rotatable=0;labelPosition=right;points=[];portConstraint=eastwest;strokeColor=inherit;" vertex="1" parent="ezU55_HowOdJxXUAR7C2-33">
          <mxGeometry y="70" width="210" height="8" as="geometry" />
        </mxCell>
        <mxCell id="ezU55_HowOdJxXUAR7C2-36" value="&lt;div&gt;+ PageDroneInfo( window : MainWindow, Drone : droneData&lt;/div&gt;&lt;div&gt;- createTopContent() : void&lt;/div&gt;&lt;div&gt;- createMidContent() : void&lt;/div&gt;&lt;div&gt;- createBotContent() : void&lt;br&gt;&lt;/div&gt;" style="text;strokeColor=none;fillColor=none;align=left;verticalAlign=top;spacingLeft=4;spacingRight=4;overflow=hidden;rotatable=0;points=[[0,0.5],[1,0.5]];portConstraint=eastwest;whiteSpace=wrap;html=1;" vertex="1" parent="ezU55_HowOdJxXUAR7C2-33">
          <mxGeometry y="78" width="210" height="82" as="geometry" />
        </mxCell>
        <mxCell id="ezU55_HowOdJxXUAR7C2-37" value="DroneDynamics Page" style="swimlane;fontStyle=1;align=center;verticalAlign=top;childLayout=stackLayout;horizontal=1;startSize=26;horizontalStack=0;resizeParent=1;resizeParentMax=0;resizeLast=0;collapsible=1;marginBottom=0;whiteSpace=wrap;html=1;" vertex="1" parent="WIyWlLk6GJQsqaUBKTNV-1">
          <mxGeometry x="520" y="280" width="310" height="260" as="geometry" />
        </mxCell>
        <mxCell id="ezU55_HowOdJxXUAR7C2-38" value="&lt;div&gt;- final panelRow : JPanel&lt;/div&gt;&lt;div&gt;- final labelTimestamp : JLabel&lt;/div&gt;&lt;div&gt;- final labelSpeed : JLabel&lt;/div&gt;&lt;div&gt;- final labelAlignmentRoll : JLabel&lt;/div&gt;&lt;div&gt;- final labelControlRange : JLabel&lt;/div&gt;&lt;div&gt;- final labelLongitude : JLabel&lt;/div&gt;&lt;div&gt;- final labelLatitude : JLabel&lt;/div&gt;&lt;div&gt;- final labelBatteryStatus : JLabel&lt;/div&gt;&lt;div&gt;- final labelStatus : JLabel&lt;br&gt;&lt;/div&gt;&lt;div&gt;- droneDynamicsData : DroneDynamics&lt;/div&gt;&lt;div&gt;&lt;br&gt;&lt;/div&gt;" style="text;strokeColor=none;fillColor=none;align=left;verticalAlign=top;spacingLeft=4;spacingRight=4;overflow=hidden;rotatable=0;points=[[0,0.5],[1,0.5]];portConstraint=eastwest;whiteSpace=wrap;html=1;" vertex="1" parent="ezU55_HowOdJxXUAR7C2-37">
          <mxGeometry y="26" width="310" height="154" as="geometry" />
        </mxCell>
        <mxCell id="ezU55_HowOdJxXUAR7C2-39" value="" style="line;strokeWidth=1;fillColor=none;align=left;verticalAlign=middle;spacingTop=-1;spacingLeft=3;spacingRight=3;rotatable=0;labelPosition=right;points=[];portConstraint=eastwest;strokeColor=inherit;" vertex="1" parent="ezU55_HowOdJxXUAR7C2-37">
          <mxGeometry y="180" width="310" height="8" as="geometry" />
        </mxCell>
        <mxCell id="ezU55_HowOdJxXUAR7C2-40" value="&lt;div&gt;+ getListCellRenderer(JList&amp;lt;timestamp, speed, alignmentRoll, controlRange, longitude, latitude, batteryStatus, status&amp;gt;) : JPanel&lt;/div&gt;&lt;div&gt;+ PageDroneDynamics( window : MainWindow) : void&lt;br&gt;&lt;/div&gt;" style="text;strokeColor=none;fillColor=none;align=left;verticalAlign=top;spacingLeft=4;spacingRight=4;overflow=hidden;rotatable=0;points=[[0,0.5],[1,0.5]];portConstraint=eastwest;whiteSpace=wrap;html=1;" vertex="1" parent="ezU55_HowOdJxXUAR7C2-37">
          <mxGeometry y="188" width="310" height="72" as="geometry" />
        </mxCell>
        <mxCell id="ezU55_HowOdJxXUAR7C2-42" value="App" style="swimlane;fontStyle=1;align=center;verticalAlign=top;childLayout=stackLayout;horizontal=1;startSize=26;horizontalStack=0;resizeParent=1;resizeParentMax=0;resizeLast=0;collapsible=1;marginBottom=0;whiteSpace=wrap;html=1;" vertex="1" parent="WIyWlLk6GJQsqaUBKTNV-1">
          <mxGeometry x="305" y="40" width="160" height="114" as="geometry" />
        </mxCell>
        <mxCell id="ezU55_HowOdJxXUAR7C2-43" value="&lt;div&gt;+ WINDOW_TITLE : String&lt;/div&gt;&lt;div&gt;+ WINDOW_WIDTH : int&lt;/div&gt;&lt;div&gt;+ WINDOW_HEIGHT : int&lt;br&gt;&lt;/div&gt;" style="text;strokeColor=none;fillColor=none;align=left;verticalAlign=top;spacingLeft=4;spacingRight=4;overflow=hidden;rotatable=0;points=[[0,0.5],[1,0.5]];portConstraint=eastwest;whiteSpace=wrap;html=1;" vertex="1" parent="ezU55_HowOdJxXUAR7C2-42">
          <mxGeometry y="26" width="160" height="54" as="geometry" />
        </mxCell>
        <mxCell id="ezU55_HowOdJxXUAR7C2-44" value="" style="line;strokeWidth=1;fillColor=none;align=left;verticalAlign=middle;spacingTop=-1;spacingLeft=3;spacingRight=3;rotatable=0;labelPosition=right;points=[];portConstraint=eastwest;strokeColor=inherit;" vertex="1" parent="ezU55_HowOdJxXUAR7C2-42">
          <mxGeometry y="80" width="160" height="8" as="geometry" />
        </mxCell>
        <mxCell id="ezU55_HowOdJxXUAR7C2-45" value="+ main(String[]) : void" style="text;strokeColor=none;fillColor=none;align=left;verticalAlign=top;spacingLeft=4;spacingRight=4;overflow=hidden;rotatable=0;points=[[0,0.5],[1,0.5]];portConstraint=eastwest;whiteSpace=wrap;html=1;" vertex="1" parent="ezU55_HowOdJxXUAR7C2-42">
          <mxGeometry y="88" width="160" height="26" as="geometry" />
        </mxCell>
      </root>
    </mxGraphModel>
  </diagram>
</mxfile>
